<svg width="3494" height="988" viewBox="0 0 3494 988" fill="none" xmlns="http://www.w3.org/2000/svg">
<g clip-path="url(#clip0_1708_415)">
<path d="M337.922 461.403C309.288 442.47 301.423 403.911 320.352 375.275C339.285 346.641 377.844 338.776 406.48 357.706C435.114 376.639 521.929 467.395 502.996 496.03C484.065 524.666 366.556 480.336 337.922 461.403Z" fill="#FF6243"/>
<path d="M338.45 525.264C310.133 544.668 302.908 583.351 322.308 611.67C341.712 639.987 380.396 647.213 408.715 627.812C437.032 608.408 522.333 516.227 502.929 487.91C483.527 459.591 366.767 505.859 338.45 525.264Z" fill="#FF6243"/>
<path d="M346.719 559.485C312.393 559.769 284.335 532.172 284.051 497.846C283.767 463.52 311.364 435.463 345.69 435.179C380.016 434.895 502.714 461.709 502.998 496.034C503.282 530.36 381.042 559.201 346.719 559.485Z" fill="#FF3501"/>
<path d="M430.78 608.976C466.511 574.645 518.521 510.662 502.93 487.908C490.838 470.259 440.939 481.581 398.194 497.315L398.422 524.813C398.689 557.094 410.899 586.515 430.78 608.976Z" fill="#FF3501"/>
<path d="M502.996 496.034C517.663 473.854 468.88 414.406 432.836 379.932C410.991 403.234 397.676 434.603 397.961 468.99L398.121 488.362C441.118 503.384 491.2 513.879 502.996 496.034Z" fill="#FF3501"/>
<path d="M397.961 468.989L398.423 524.814C398.497 533.734 399.485 542.439 401.288 550.838C447.929 539.734 503.189 519.127 502.998 496.033C502.807 472.939 447.214 453.249 400.395 442.919C398.728 451.349 397.887 460.068 397.961 468.989Z" fill="#CD2A00"/>
<path d="M635.609 285.382C638.719 277.707 648.061 274.668 655.553 278.19L718.77 307.901C722.594 309.698 725.479 313.022 726.722 317.058C727.964 321.096 727.448 325.468 725.297 329.102L681.923 402.428C677.708 409.555 668.512 411.915 661.387 407.7C654.262 403.483 651.897 394.289 656.114 387.163L691.096 328.027L642.801 305.328C637.41 302.794 631.55 295.396 635.609 285.382Z" fill="#CD2A00"/>
<path d="M528.731 301.826C531.989 294.213 541.183 291.112 548.675 294.633L611.892 324.344C615.716 326.142 618.601 329.466 619.844 333.502C621.086 337.54 620.57 341.912 618.419 345.546L575.045 418.871C570.83 425.998 561.634 428.359 554.509 424.144C547.384 419.929 545.021 410.734 549.236 403.607L584.218 344.47L535.923 321.772C530.53 319.238 524.403 311.94 528.731 301.826Z" fill="#CD2A00"/>
<path d="M645.937 684.398L693.85 660.904L657.895 602.354C653.56 595.298 655.768 586.066 662.827 581.733C669.881 577.401 679.115 579.607 683.447 586.665L728.028 659.263C730.237 662.861 730.828 667.22 729.653 671.281C728.477 675.338 725.647 678.709 721.853 680.569L659.137 711.322C651.702 714.965 642.58 711.963 639.076 704.461C633.502 692.527 640.587 687.022 645.937 684.398Z" fill="#CD2A00"/>
<path d="M538.801 669.725L586.714 646.231L550.759 587.681C546.425 580.627 548.635 571.393 555.691 567.06C562.745 562.728 571.979 564.934 576.312 571.992L620.893 644.59C623.101 648.188 623.692 652.549 622.517 656.609C621.341 660.665 618.511 664.036 614.717 665.897L552.001 696.649C544.566 700.292 535.827 697.099 531.94 689.788C526.782 680.085 533.451 672.349 538.801 669.725Z" fill="#CD2A00"/>
<path d="M806.301 572.218C788.093 589.754 787.544 618.999 805.082 637.207L1001.51 841.153C1019.05 859.361 1048.29 859.909 1066.5 842.372C1084.71 824.836 1085.26 795.59 1067.72 777.382L871.29 573.437C853.754 555.23 824.509 554.682 806.301 572.218Z" fill="#CD2A00"/>
<path d="M1023.65 718.187C979.243 753.538 971.907 818.19 1007.26 862.593C1042.61 906.996 1107.26 914.332 1151.67 878.98C1196.07 843.629 1292.92 707.709 1257.57 663.306C1222.22 618.903 1068.05 682.835 1023.65 718.187Z" fill="#FF6243"/>
<path d="M1023.65 718.187C1068.05 682.835 1222.22 618.905 1257.57 663.306L1007.26 862.593C971.907 818.19 979.245 753.538 1023.65 718.187Z" fill="#FF3501"/>
<path d="M859.577 693.788C890.295 690.945 928.106 683.272 966.53 672.321L871.291 573.438C853.755 555.23 824.509 554.682 806.301 572.22C788.093 589.755 787.545 619.001 805.083 637.209L859.577 693.788Z" fill="#AB2300"/>
<path d="M804.999 414.837C786.503 397.605 785.471 368.373 802.705 349.877L995.732 142.711C1012.96 124.215 1042.2 123.183 1060.69 140.417C1079.19 157.649 1080.22 186.882 1062.99 205.377L869.957 412.546C852.727 431.039 823.495 432.071 804.999 414.837Z" fill="#CD2A00"/>
<path d="M1019.9 265.295C974.917 230.683 966.513 166.162 1001.12 121.18C1035.74 76.1978 1100.26 67.7931 1145.24 102.405C1190.22 137.018 1289.31 271.316 1254.7 316.298C1220.09 361.28 1064.88 299.906 1019.9 265.295Z" fill="#FF6243"/>
<path d="M1019.9 265.296C1064.88 299.908 1220.08 361.279 1254.7 316.298L1001.12 121.178C966.512 166.16 974.919 230.684 1019.9 265.296Z" fill="#FF3501"/>
<path d="M963.549 312.097C924.948 301.783 887.014 294.739 856.256 292.403L802.705 349.878C785.473 368.374 786.505 397.606 804.999 414.838C823.495 432.07 852.727 431.038 869.959 412.544L963.549 312.097Z" fill="#AB2300"/>
<path d="M598.664 110.396C602.116 102.87 611.327 99.9316 618.749 103.603L1173.48 377.933C1177.58 379.964 1180.53 383.76 1181.49 388.24C1182.45 392.721 1181.31 397.393 1178.39 400.922L1116.04 476.384C1110.76 482.766 1101.31 483.667 1094.93 478.392C1088.55 473.117 1087.65 463.667 1092.92 457.285L1143.22 396.416L605.457 130.48C600.213 127.887 594.281 119.951 598.664 110.396Z" fill="#FF3501"/>
<path d="M611.493 859.842L1144.77 585.042L1093.48 525.013C1088.1 518.721 1088.85 509.255 1095.14 503.876C1101.43 498.496 1110.9 499.24 1116.28 505.534L1179.87 579.955C1182.84 583.437 1184.06 588.093 1183.18 592.583C1182.3 597.079 1179.41 600.923 1175.34 603.021L625.224 886.493C617.863 890.287 609.079 887.255 605.028 880.033C599.997 871.058 606.29 862.521 611.493 859.842Z" fill="#FF3501"/>
<path d="M448.395 524.399L447.933 468.576C447.575 425.232 482.745 389.477 526.087 389.118L535.54 389.04C578.884 388.681 614.639 423.852 614.998 467.194L615.46 523.017C615.818 566.36 580.648 602.116 537.306 602.475L527.853 602.553C484.511 602.913 448.754 567.743 448.395 524.399Z" fill="#FF6243"/>
<path d="M615.463 523.017L615.001 467.194C614.642 423.85 578.885 388.681 535.543 389.04L526.09 389.118C522.006 389.152 517.993 389.501 514.078 390.141C500.914 411.71 493.391 437.065 493.615 464.138L494.144 528.082C494.368 555.155 502.31 580.382 515.829 601.73C519.756 602.306 523.772 602.589 527.856 602.555L537.309 602.477C580.651 602.118 615.821 566.36 615.463 523.017Z" fill="#FF3501"/>
<path d="M544.114 527.668L543.585 463.724C543.174 414.075 583.46 373.115 633.111 372.704L643.939 372.615C693.588 372.204 734.548 412.489 734.959 462.141L735.488 526.084C735.899 575.734 695.613 616.693 645.962 617.104L635.134 617.194C585.485 617.604 544.525 577.317 544.114 527.668Z" fill="#FF6243"/>
<path d="M735.49 526.084L734.961 462.141C734.55 412.491 693.592 372.204 643.941 372.615L633.113 372.704C627.139 372.754 621.305 373.405 615.656 374.572C598.816 398.927 589.015 428.482 589.278 460.275L589.858 530.362C590.121 562.153 600.412 591.544 617.65 615.616C623.318 616.691 629.162 617.245 635.136 617.196L645.964 617.106C695.611 616.693 735.901 575.734 735.49 526.084Z" fill="#FF3501"/>
<path d="M639.828 529.945L639.248 459.859C638.798 405.441 682.954 360.55 737.37 360.099L749.239 360.001C803.657 359.551 848.548 403.707 848.998 458.124L849.578 528.21C850.029 582.629 805.873 627.519 751.456 627.97L739.587 628.068C685.171 628.518 640.278 584.362 639.828 529.945Z" fill="#FF6243"/>
<path d="M751.459 627.97C805.877 627.519 850.031 582.627 849.581 528.21L849.001 458.124C848.551 403.705 803.658 359.551 749.242 360.001L737.373 360.099C729.072 360.168 721.012 361.283 713.311 363.297C712.794 364.401 693.766 412.826 694.441 494.45C695.089 572.743 714.943 624.176 715.478 625.273C723.212 627.159 731.29 628.14 739.59 628.072L751.459 627.973L751.459 627.97Z" fill="#FF3501"/>
<path d="M836.692 645.035C752.881 645.729 745.109 577.846 744.416 494.034C743.722 410.221 750.37 342.22 834.181 341.526C917.991 340.833 1152.06 406.845 1152.75 490.657C1153.45 574.468 920.501 644.342 836.692 645.035Z" fill="#FF6243"/>
<path d="M834.855 423.005C904.551 422.428 1078.14 467.983 1135.04 531.545C1146.34 518.486 1152.87 504.772 1152.76 490.657C1152.06 406.845 917.991 340.835 834.183 341.528C750.374 342.222 743.724 410.223 744.417 494.036C744.534 508.154 744.865 521.804 745.715 534.766C748.837 470.718 765.161 423.582 834.855 423.005Z" fill="#FF6243"/>
<path d="M958.45 544.141C966.934 541.354 975.33 538.402 983.403 535.367C991.154 532.453 999.798 536.374 1002.71 544.123C1005.63 551.872 1001.71 560.518 993.957 563.432C985.491 566.617 976.693 569.711 967.807 572.629C959.941 575.214 951.26 570.997 948.885 563.065C946.211 554.137 952.094 546.227 958.45 544.141Z" fill="#FF6243"/>
<path d="M821.201 585.191C821.133 576.911 827.79 570.143 836.07 570.075C852.645 569.937 881.96 565.082 912.577 557.406C920.609 555.392 928.753 560.27 930.767 568.3C932.785 576.34 927.903 584.477 919.873 586.491C886.622 594.83 855.385 599.902 836.322 600.06C828.038 600.128 821.27 593.471 821.201 585.191Z" fill="#FF6243"/>
<path d="M1054.68 458.118C1054.64 453.47 1056.48 448.924 1059.74 445.635C1062.98 442.319 1067.52 440.405 1072.14 440.367C1076.76 440.329 1081.33 442.168 1084.62 445.429C1087.94 448.664 1089.85 453.178 1089.89 457.827C1089.93 462.474 1088.09 467.021 1084.83 470.31C1081.59 473.626 1077.05 475.54 1072.43 475.578C1067.81 475.617 1063.24 473.778 1059.95 470.516C1056.63 467.282 1054.72 462.765 1054.68 458.118Z" fill="#1D1D1F"/>
<path d="M1055.23 524.814C1055.19 520.165 1057.03 515.619 1060.29 512.331C1063.53 509.015 1068.07 507.101 1072.69 507.062C1077.32 507.024 1081.88 508.863 1085.18 512.125C1088.49 515.359 1090.4 519.874 1090.44 524.523C1090.48 529.169 1088.64 533.717 1085.38 537.006C1082.14 540.321 1077.61 542.236 1072.98 542.274C1068.36 542.312 1063.79 540.473 1060.5 537.212C1057.19 533.977 1055.27 529.461 1055.23 524.814Z" fill="#1D1D1F"/>
</g>
<path d="M1571.51 465.017C1569.46 450.972 1563.76 440.438 1554.39 433.416C1545.32 426.1 1533.77 422.443 1519.72 422.443C1513.28 422.443 1506.41 423.613 1499.09 425.954C1491.78 428.002 1485.05 432.099 1478.9 438.244C1472.76 444.096 1467.64 452.435 1463.54 463.261C1459.45 473.795 1457.4 487.693 1457.4 504.957C1457.4 514.32 1458.42 523.684 1460.47 533.047C1462.81 542.41 1466.32 550.749 1471 558.065C1475.98 565.38 1482.27 571.378 1489.88 576.06C1497.48 580.449 1506.7 582.643 1517.53 582.643C1532.16 582.643 1544.15 578.108 1553.52 569.037C1563.17 559.966 1569.17 547.238 1571.51 530.852H1621.55C1616.87 560.405 1605.6 583.082 1587.75 598.883C1570.2 614.391 1546.79 622.145 1517.53 622.145C1499.68 622.145 1483.88 619.219 1470.13 613.367C1456.67 607.222 1445.25 599.029 1435.89 588.788C1426.53 578.254 1419.36 565.819 1414.38 551.481C1409.7 537.143 1407.36 521.635 1407.36 504.957C1407.36 487.986 1409.7 472.039 1414.38 457.116C1419.07 442.194 1426.09 429.319 1435.45 418.493C1444.81 407.374 1456.37 398.742 1470.13 392.597C1484.17 386.16 1500.56 382.942 1519.28 382.942C1532.45 382.942 1544.89 384.697 1556.59 388.208C1568.59 391.427 1579.12 396.401 1588.19 403.131C1597.55 409.861 1605.16 418.347 1611.01 428.588C1616.87 438.829 1620.38 450.972 1621.55 465.017H1571.51ZM1645.98 302.622H1696.01V616H1645.98V302.622ZM1923.02 565.526C1923.02 571.671 1923.75 576.06 1925.21 578.693C1926.97 581.327 1930.19 582.643 1934.87 582.643C1936.33 582.643 1938.09 582.643 1940.14 582.643C1942.19 582.643 1944.53 582.351 1947.16 581.765V616.439C1945.4 617.024 1943.06 617.609 1940.14 618.195C1937.5 619.072 1934.72 619.804 1931.8 620.389C1928.87 620.974 1925.95 621.413 1923.02 621.706C1920.09 621.998 1917.61 622.145 1915.56 622.145C1905.32 622.145 1896.83 620.096 1890.1 616C1883.37 611.904 1878.98 604.735 1876.94 594.494C1866.99 604.15 1854.7 611.172 1840.07 615.561C1825.73 619.95 1811.83 622.145 1798.37 622.145C1788.13 622.145 1778.33 620.682 1768.96 617.756C1759.6 615.122 1751.26 611.172 1743.95 605.905C1736.92 600.346 1731.22 593.47 1726.83 585.277C1722.73 576.791 1720.68 566.989 1720.68 555.87C1720.68 541.825 1723.17 530.414 1728.15 521.635C1733.41 512.857 1740.14 505.981 1748.34 501.007C1756.82 496.033 1766.18 492.521 1776.43 490.473C1786.96 488.132 1797.49 486.377 1808.03 485.206C1817.1 483.451 1825.73 482.28 1833.92 481.695C1842.12 480.817 1849.28 479.501 1855.43 477.745C1861.87 475.989 1866.84 473.356 1870.35 469.845C1874.16 466.041 1876.06 460.481 1876.06 453.166C1876.06 446.729 1874.45 441.462 1871.23 437.366C1868.3 433.269 1864.5 430.197 1859.82 428.149C1855.43 425.808 1850.45 424.345 1844.89 423.76C1839.34 422.882 1834.07 422.443 1829.09 422.443C1815.05 422.443 1803.49 425.369 1794.42 431.221C1785.35 437.073 1780.23 446.144 1779.06 458.433H1729.02C1729.9 443.803 1733.41 431.66 1739.56 422.004C1745.7 412.348 1753.46 404.594 1762.82 398.742C1772.48 392.89 1783.3 388.794 1795.3 386.453C1807.3 384.112 1819.58 382.942 1832.17 382.942C1843.29 382.942 1854.26 384.112 1865.08 386.453C1875.91 388.794 1885.57 392.597 1894.05 397.864C1902.83 403.131 1909.85 410.007 1915.12 418.493C1920.39 426.686 1923.02 436.781 1923.02 448.777V565.526ZM1872.98 502.324C1865.38 507.298 1856.01 510.37 1844.89 511.541C1833.78 512.418 1822.66 513.881 1811.54 515.93C1806.27 516.807 1801.15 518.124 1796.18 519.88C1791.2 521.343 1786.81 523.537 1783.01 526.463C1779.21 529.097 1776.13 532.754 1773.79 537.436C1771.74 541.825 1770.72 547.238 1770.72 553.676C1770.72 559.235 1772.33 563.917 1775.55 567.72C1778.77 571.524 1782.57 574.597 1786.96 576.937C1791.64 578.986 1796.62 580.449 1801.88 581.327C1807.44 582.204 1812.42 582.643 1816.81 582.643C1822.36 582.643 1828.36 581.912 1834.8 580.449C1841.24 578.986 1847.24 576.499 1852.8 572.987C1858.65 569.476 1863.48 565.087 1867.28 559.82C1871.08 554.261 1872.98 547.531 1872.98 539.631V502.324ZM1938.67 389.086H1991.78L2036.11 558.503H2036.99L2079.56 389.086H2130.04L2170.85 558.503H2171.73L2217.82 389.086H2268.73L2197.63 616H2146.28L2104.14 447.461H2103.26L2061.57 616H2008.9L1938.67 389.086ZM2321.1 543.142C2322.56 557.772 2328.12 568.013 2337.78 573.865C2347.43 579.717 2358.99 582.643 2372.45 582.643C2377.13 582.643 2382.4 582.351 2388.25 581.765C2394.4 580.888 2400.1 579.425 2405.37 577.376C2410.64 575.328 2414.88 572.402 2418.1 568.598C2421.61 564.502 2423.22 559.235 2422.93 552.798C2422.63 546.36 2420.29 541.094 2415.9 536.997C2411.51 532.901 2405.81 529.682 2398.79 527.341C2392.06 524.708 2384.3 522.513 2375.52 520.758C2366.75 519.002 2357.82 517.1 2348.75 515.052C2339.39 513.004 2330.32 510.517 2321.54 507.59C2313.05 504.664 2305.3 500.714 2298.28 495.74C2291.55 490.766 2286.13 484.475 2282.04 476.867C2277.94 468.967 2275.89 459.311 2275.89 447.899C2275.89 435.61 2278.82 425.369 2284.67 417.176C2290.82 408.691 2298.42 401.961 2307.49 396.986C2316.86 391.72 2327.1 388.062 2338.22 386.014C2349.63 383.966 2360.45 382.942 2370.7 382.942C2382.4 382.942 2393.52 384.258 2404.05 386.892C2414.88 389.232 2424.54 393.183 2433.02 398.742C2441.8 404.302 2448.97 411.617 2454.53 420.687C2460.38 429.465 2464.04 440.145 2465.5 452.727H2413.27C2410.93 440.731 2405.37 432.684 2396.59 428.588C2388.11 424.491 2378.3 422.443 2367.18 422.443C2363.67 422.443 2359.43 422.736 2354.46 423.321C2349.77 423.906 2345.24 425.076 2340.85 426.832C2336.75 428.295 2333.24 430.636 2330.32 433.854C2327.39 436.781 2325.93 440.731 2325.93 445.705C2325.93 451.85 2327.98 456.824 2332.07 460.628C2336.46 464.432 2342.02 467.65 2348.75 470.284C2355.77 472.624 2363.67 474.673 2372.45 476.428C2381.23 478.184 2390.3 480.086 2399.66 482.134C2408.73 484.182 2417.66 486.669 2426.44 489.595C2435.22 492.521 2442.97 496.472 2449.7 501.446C2456.72 506.42 2462.28 512.711 2466.38 520.319C2470.77 527.926 2472.96 537.29 2472.96 548.409C2472.96 561.868 2469.89 573.28 2463.74 582.643C2457.6 592.007 2449.55 599.614 2439.6 605.466C2429.95 611.318 2419.12 615.561 2407.13 618.195C2395.13 620.828 2383.28 622.145 2371.57 622.145C2357.24 622.145 2343.92 620.535 2331.63 617.317C2319.64 614.098 2309.1 609.27 2300.03 602.833C2291.25 596.103 2284.23 587.91 2278.96 578.254C2273.99 568.306 2271.36 556.602 2271.06 543.142H2321.1ZM2468.38 389.086H2523.24L2582.49 558.503H2583.37L2640.87 389.086H2693.1L2604.88 628.289C2600.78 638.53 2596.68 648.333 2592.59 657.696C2588.78 667.059 2583.95 675.252 2578.1 682.275C2572.54 689.59 2565.52 695.295 2557.04 699.392C2548.55 703.781 2537.72 705.975 2524.56 705.975C2512.85 705.975 2501.29 705.098 2489.88 703.342V661.207C2493.98 661.792 2497.93 662.378 2501.73 662.963C2505.54 663.841 2509.49 664.28 2513.58 664.28C2519.44 664.28 2524.26 663.548 2528.07 662.085C2531.87 660.622 2534.94 658.427 2537.28 655.501C2539.92 652.868 2542.11 649.649 2543.87 645.846C2545.62 642.042 2547.23 637.653 2548.7 632.678L2554.4 615.122L2468.38 389.086ZM2703.43 389.086H2750.84V422.443L2751.71 423.321C2759.32 410.739 2769.27 400.937 2781.56 393.914C2793.85 386.599 2807.45 382.942 2822.38 382.942C2847.25 382.942 2866.85 389.379 2881.19 402.253C2895.53 415.128 2902.7 434.44 2902.7 460.189V616H2852.66V473.356C2852.08 455.507 2848.27 442.633 2841.25 434.732C2834.23 426.539 2823.25 422.443 2808.33 422.443C2799.85 422.443 2792.24 424.052 2785.51 427.271C2778.78 430.197 2773.07 434.44 2768.39 439.999C2763.71 445.266 2760.05 451.557 2757.42 458.872C2754.79 466.187 2753.47 473.941 2753.47 482.134V616H2703.43V389.086ZM3091.08 465.017C3089.03 450.972 3083.33 440.438 3073.97 433.416C3064.89 426.1 3053.34 422.443 3039.29 422.443C3032.85 422.443 3025.98 423.613 3018.66 425.954C3011.35 428.002 3004.62 432.099 2998.47 438.244C2992.33 444.096 2987.21 452.435 2983.11 463.261C2979.02 473.795 2976.97 487.693 2976.97 504.957C2976.97 514.32 2977.99 523.684 2980.04 533.047C2982.38 542.41 2985.89 550.749 2990.57 558.065C2995.55 565.38 3001.84 571.378 3009.45 576.06C3017.05 580.449 3026.27 582.643 3037.1 582.643C3051.73 582.643 3063.72 578.108 3073.09 569.037C3082.74 559.966 3088.74 547.238 3091.08 530.852H3141.12C3136.44 560.405 3125.17 583.082 3107.32 598.883C3089.77 614.391 3066.36 622.145 3037.1 622.145C3019.25 622.145 3003.45 619.219 2989.7 613.367C2976.24 607.222 2964.82 599.029 2955.46 588.788C2946.1 578.254 2938.93 565.819 2933.95 551.481C2929.27 537.143 2926.93 521.635 2926.93 504.957C2926.93 487.986 2929.27 472.039 2933.95 457.116C2938.64 442.194 2945.66 429.319 2955.02 418.493C2964.39 407.374 2975.94 398.742 2989.7 392.597C3003.74 386.16 3020.13 382.942 3038.85 382.942C3052.02 382.942 3064.46 384.697 3076.16 388.208C3088.16 391.427 3098.69 396.401 3107.76 403.131C3117.12 409.861 3124.73 418.347 3130.58 428.588C3136.44 438.829 3139.95 450.972 3141.12 465.017H3091.08Z" fill="black"/>
<path d="M181.387 700C116.747 700 64.0533 647.307 64.0533 582.667V543.413C64.0533 529.333 58.2933 515.68 48.48 505.653L9.44 466.613C-3.14667 454.027 -3.14667 433.76 9.44 421.387L48.48 382.347C58.5067 372.32 64.0533 358.667 64.0533 344.587V305.333C64.0533 240.693 116.747 188 181.387 188C199.093 188 213.387 202.293 213.387 220C213.387 237.707 199.093 252 181.387 252C151.947 252 128.053 275.893 128.053 305.333V344.587C128.053 375.947 115.893 405.387 93.7067 427.573L77.28 444L93.7067 460.427C115.893 482.613 128.053 512.053 128.053 543.413V582.667C128.053 612.107 151.947 636 181.387 636C199.093 636 213.387 650.293 213.387 668C213.387 685.707 199.093 700 181.387 700Z" fill="black"/>
<path d="M3312 706C3376.64 706 3429.33 653.307 3429.33 588.667V549.413C3429.33 535.333 3435.09 521.68 3444.91 511.653L3483.95 472.613C3496.53 460.027 3496.53 439.76 3483.95 427.387L3444.91 388.347C3434.88 378.32 3429.33 364.667 3429.33 350.587V311.333C3429.33 246.693 3376.64 194 3312 194C3294.29 194 3280 208.293 3280 226C3280 243.707 3294.29 258 3312 258C3341.44 258 3365.33 281.893 3365.33 311.333V350.587C3365.33 381.947 3377.49 411.387 3399.68 433.573L3416.11 450L3399.68 466.427C3377.49 488.613 3365.33 518.053 3365.33 549.413V588.667C3365.33 618.107 3341.44 642 3312 642C3294.29 642 3280 656.293 3280 674C3280 691.707 3294.29 706 3312 706Z" fill="black"/>
<defs>
<clipPath id="clip0_1708_415">
<rect width="979.514" height="979.514" fill="white" transform="translate(1259.48) rotate(89.5259)"/>
</clipPath>
</defs>
</svg>
